<svg xmlns="http://www.w3.org/2000/svg" viewBox="0 0 32 32" fill="none">
  <defs>
    <linearGradient id="bubbleGrad" x1="0%" y1="0%" x2="100%" y2="100%">
      <stop offset="0%" stop-color="#4a7c59" />
      <stop offset="100%" stop-color="#3b6045" />
    </linearGradient>
  </defs>
  <rect width="32" height="32" rx="8" fill="url(#bubbleGrad)" />
  <path d="M16 8C11.58 8 8 11.13 8 15C8 17.24 9.17 19.22 11 20.47V24L14.5 22.25C15 22.42 15.5 22.5 16 22.5C20.42 22.5 24 19.37 24 15C24 11.13 20.42 8 16 8ZM13 16C12.45 16 12 15.55 12 15C12 14.45 12.45 14 13 14C13.55 14 14 14.45 14 15C14 15.55 13.55 16 13 16ZM16 16C15.45 16 15 15.55 15 15C15 14.45 15.45 14 16 14C16.55 14 17 14.45 17 15C17 15.55 16.55 16 16 16ZM19 16C18.45 16 18 15.55 18 15C18 14.45 18.45 14 19 14C19.55 14 20 14.45 20 15C20 15.55 19.55 16 19 16Z" fill="#ffffff" />
</svg>